<svg xmlns="http://www.w3.org/2000/svg" width="24" height="24" viewBox="0 0 24 24">
  <g id="icons8-google-logo" transform="translate(-4 -4)">
    <path id="Caminho_3" data-name="Caminho 3" d="M27.767,13.65H26.8V13.6H16v4.8h6.782a7.206,7.206,0,1,1-2.005-7.777l3.394-3.394A11.988,11.988,0,1,0,28,16,12.081,12.081,0,0,0,27.767,13.65Z" fill="#fbc02d"/>
    <path id="Caminho_4" data-name="Caminho 4" d="M6.306,10.415l3.943,2.891A7.185,7.185,0,0,1,21.7,10.623l3.394-3.394A11.976,11.976,0,0,0,6.306,10.415Z" transform="translate(-0.922)" fill="#e53935"/>
    <path id="Caminho_5" data-name="Caminho 5" d="M16.878,37.622a11.944,11.944,0,0,0,8.045-3.115l-3.714-3.143a7.181,7.181,0,0,1-11.1-3.31L6.2,31.069A11.991,11.991,0,0,0,16.878,37.622Z" transform="translate(-0.878 -9.622)" fill="#4caf50"/>
    <path id="Caminho_6" data-name="Caminho 6" d="M35.767,20.05l-.01-.05H24v4.8h6.782a7.224,7.224,0,0,1-2.452,3.343h0l3.714,3.143A11.608,11.608,0,0,0,36,22.4,12.082,12.082,0,0,0,35.767,20.05Z" transform="translate(-8 -6.4)" fill="#1565c0"/>
  </g>
</svg>
