<svg xmlns="http://www.w3.org/2000/svg" width="64" height="64" viewBox="0 0 64 64">
  <path id="Caminho_285" data-name="Caminho 285" d="M31.389,63.592,25.151,48.533,10.094,54.77a.681.681,0,0,1-.138.041.662.662,0,0,1-.726-.905l6.237-15.058L.409,32.611a.661.661,0,0,1,0-1.221l15.058-6.238L9.229,10.094a.659.659,0,0,1,.864-.864l15.058,6.237L31.389.409a.661.661,0,0,1,1.221,0l6.238,15.058L53.906,9.229a.661.661,0,0,1,.864.864L48.533,25.151l15.059,6.238a.661.661,0,0,1,0,1.221L48.533,38.848,54.77,53.906a.659.659,0,0,1-.864.864L38.848,48.533,32.611,63.592a.661.661,0,0,1-1.221,0Zm.611-3.3,5.159-12.455a1.827,1.827,0,0,1,2.389-.989L52,52,46.844,39.548a1.829,1.829,0,0,1,.989-2.389L60.288,32l-12.455-5.16a1.827,1.827,0,0,1-.989-.989h0L35.307,30.631l7.611,3.153a4,4,0,0,1,0,7.391L26.841,47.834ZM17.156,24.452a1.828,1.828,0,0,1-.989,2.389L3.712,32l12.455,5.159a1.83,1.83,0,0,1,.989.989h0l11.538-4.779-7.612-3.153a4,4,0,0,1,0-7.391l16.077-6.659L32,3.712l-5.16,12.455a1.827,1.827,0,0,1-2.389.989L12,12Z" transform="translate(0)" fill="#fff"/>
</svg>
